%TF.GenerationSoftware,KiCad,Pcbnew,10.0.1*%
%TF.CreationDate,2026-04-29T02:44:25-04:00*%
%TF.ProjectId,ESP_IMU_Board,4553505f-494d-4555-9f42-6f6172642e6b,rev?*%
%TF.SameCoordinates,Original*%
%TF.FileFunction,Soldermask,Top*%
%TF.FilePolarity,Negative*%
%FSLAX46Y46*%
G04 Gerber Fmt 4.6, Leading zero omitted, Abs format (unit mm)*
G04 Created by KiCad (PCBNEW 10.0.1) date 2026-04-29 02:44:25*
%MOMM*%
%LPD*%
G01*
G04 APERTURE LIST*
G04 Aperture macros list*
%AMRoundRect*
0 Rectangle with rounded corners*
0 $1 Rounding radius*
0 $2 $3 $4 $5 $6 $7 $8 $9 X,Y pos of 4 corners*
0 Add a 4 corners polygon primitive as box body*
4,1,4,$2,$3,$4,$5,$6,$7,$8,$9,$2,$3,0*
0 Add four circle primitives for the rounded corners*
1,1,$1+$1,$2,$3*
1,1,$1+$1,$4,$5*
1,1,$1+$1,$6,$7*
1,1,$1+$1,$8,$9*
0 Add four rect primitives between the rounded corners*
20,1,$1+$1,$2,$3,$4,$5,0*
20,1,$1+$1,$4,$5,$6,$7,0*
20,1,$1+$1,$6,$7,$8,$9,0*
20,1,$1+$1,$8,$9,$2,$3,0*%
G04 Aperture macros list end*
%ADD10RoundRect,0.250000X0.450000X-0.350000X0.450000X0.350000X-0.450000X0.350000X-0.450000X-0.350000X0*%
%ADD11RoundRect,0.250000X0.350000X0.450000X-0.350000X0.450000X-0.350000X-0.450000X0.350000X-0.450000X0*%
%ADD12R,1.700000X1.000000*%
%ADD13RoundRect,0.250000X-0.337500X-0.475000X0.337500X-0.475000X0.337500X0.475000X-0.337500X0.475000X0*%
%ADD14RoundRect,0.375000X0.375000X-0.625000X0.375000X0.625000X-0.375000X0.625000X-0.375000X-0.625000X0*%
%ADD15RoundRect,0.500000X1.400000X-0.500000X1.400000X0.500000X-1.400000X0.500000X-1.400000X-0.500000X0*%
%ADD16C,3.600000*%
%ADD17C,6.400000*%
%ADD18RoundRect,0.250000X0.325000X0.450000X-0.325000X0.450000X-0.325000X-0.450000X0.325000X-0.450000X0*%
%ADD19RoundRect,0.250000X-0.350000X-0.450000X0.350000X-0.450000X0.350000X0.450000X-0.350000X0.450000X0*%
%ADD20RoundRect,0.250000X-0.450000X0.325000X-0.450000X-0.325000X0.450000X-0.325000X0.450000X0.325000X0*%
%ADD21RoundRect,0.250000X-0.450000X0.350000X-0.450000X-0.350000X0.450000X-0.350000X0.450000X0.350000X0*%
%ADD22RoundRect,0.250000X-0.475000X0.337500X-0.475000X-0.337500X0.475000X-0.337500X0.475000X0.337500X0*%
%ADD23RoundRect,0.102000X-0.125000X-0.337500X0.125000X-0.337500X0.125000X0.337500X-0.125000X0.337500X0*%
%ADD24RoundRect,0.102000X-0.287500X-0.125000X0.287500X-0.125000X0.287500X0.125000X-0.287500X0.125000X0*%
%ADD25C,1.600000*%
%ADD26R,4.000000X4.000000*%
%ADD27C,3.300000*%
%ADD28C,3.500000*%
%ADD29RoundRect,0.250000X0.337500X0.475000X-0.337500X0.475000X-0.337500X-0.475000X0.337500X-0.475000X0*%
%ADD30RoundRect,0.250001X-1.149999X1.149999X-1.149999X-1.149999X1.149999X-1.149999X1.149999X1.149999X0*%
%ADD31C,2.800000*%
%ADD32RoundRect,0.250000X0.450000X-0.325000X0.450000X0.325000X-0.450000X0.325000X-0.450000X-0.325000X0*%
%ADD33R,1.500000X0.900000*%
%ADD34R,0.900000X1.500000*%
%ADD35C,0.600000*%
%ADD36R,3.900000X3.900000*%
%ADD37RoundRect,0.150000X0.150000X-0.587500X0.150000X0.587500X-0.150000X0.587500X-0.150000X-0.587500X0*%
%ADD38C,0.650000*%
%ADD39RoundRect,0.150000X-0.150000X-0.425000X0.150000X-0.425000X0.150000X0.425000X-0.150000X0.425000X0*%
%ADD40RoundRect,0.075000X-0.075000X-0.500000X0.075000X-0.500000X0.075000X0.500000X-0.075000X0.500000X0*%
%ADD41O,1.000000X2.100000*%
%ADD42O,1.000000X1.600000*%
%ADD43R,1.700000X1.700000*%
%ADD44C,1.700000*%
G04 APERTURE END LIST*
D10*
%TO.C,R13*%
X129500000Y-94000000D03*
X129500000Y-92000000D03*
%TD*%
D11*
%TO.C,R8*%
X145500000Y-102000000D03*
X143500000Y-102000000D03*
%TD*%
D12*
%TO.C,SW1*%
X114408873Y-78600000D03*
X120708873Y-78600000D03*
X114408873Y-82400000D03*
X120708873Y-82400000D03*
%TD*%
D13*
%TO.C,C1*%
X135462500Y-129500000D03*
X137537500Y-129500000D03*
%TD*%
D14*
%TO.C,U2*%
X137200000Y-124140000D03*
X139500000Y-124140000D03*
D15*
X139500000Y-117840000D03*
D14*
X141800000Y-124140000D03*
%TD*%
D16*
%TO.C,H1*%
X115750000Y-70390000D03*
D17*
X115750000Y-70390000D03*
%TD*%
D18*
%TO.C,D1*%
X134083873Y-132490000D03*
X132033873Y-132490000D03*
%TD*%
D13*
%TO.C,C8*%
X150462500Y-136000000D03*
X152537500Y-136000000D03*
%TD*%
D19*
%TO.C,R7*%
X143500000Y-98500000D03*
X145500000Y-98500000D03*
%TD*%
D13*
%TO.C,C7*%
X150462500Y-132990000D03*
X152537500Y-132990000D03*
%TD*%
D20*
%TO.C,D3*%
X137000000Y-135975000D03*
X137000000Y-138025000D03*
%TD*%
D19*
%TO.C,R5*%
X116000000Y-133000000D03*
X118000000Y-133000000D03*
%TD*%
D21*
%TO.C,R2*%
X142050000Y-134000000D03*
X142050000Y-136000000D03*
%TD*%
D16*
%TO.C,H3*%
X115558873Y-145990000D03*
D17*
X115558873Y-145990000D03*
%TD*%
D22*
%TO.C,C11*%
X133000000Y-106962500D03*
X133000000Y-109037500D03*
%TD*%
D23*
%TO.C,U3*%
X131500000Y-100500000D03*
D24*
X131437500Y-101312500D03*
X131437500Y-101812500D03*
X131437500Y-102312500D03*
X131437500Y-102812500D03*
D23*
X131500000Y-103625000D03*
X132000000Y-103625000D03*
X132500000Y-103625000D03*
X133000000Y-103625000D03*
X133500000Y-103625000D03*
X134000000Y-103625000D03*
X134500000Y-103625000D03*
X135000000Y-103625000D03*
X135500000Y-103625000D03*
X136000000Y-103625000D03*
D24*
X136062500Y-102812500D03*
X136062500Y-102312500D03*
X136062500Y-101812500D03*
X136062500Y-101312500D03*
D23*
X136000000Y-100500000D03*
X135500000Y-100500000D03*
X135000000Y-100500000D03*
X134500000Y-100500000D03*
X134000000Y-100500000D03*
X133500000Y-100500000D03*
X133000000Y-100500000D03*
X132500000Y-100500000D03*
X132000000Y-100500000D03*
%TD*%
D25*
%TO.C,J3*%
X128058873Y-146310000D03*
D26*
X128058873Y-137310000D03*
D27*
X128058873Y-143310000D03*
D28*
X123558873Y-144310000D03*
X132558873Y-144310000D03*
%TD*%
D12*
%TO.C,SW2*%
X120500000Y-93500000D03*
X114200000Y-93500000D03*
X120500000Y-89700000D03*
X114200000Y-89700000D03*
%TD*%
D29*
%TO.C,C13*%
X120500000Y-102000000D03*
X118425000Y-102000000D03*
%TD*%
D11*
%TO.C,R4*%
X129000000Y-130000000D03*
X127000000Y-130000000D03*
%TD*%
D10*
%TO.C,R6*%
X124000000Y-128000000D03*
X124000000Y-126000000D03*
%TD*%
D30*
%TO.C,J5*%
X117032500Y-114750000D03*
D31*
X117032500Y-119750000D03*
%TD*%
D29*
%TO.C,C12*%
X120500000Y-106500000D03*
X118425000Y-106500000D03*
%TD*%
D32*
%TO.C,D2*%
X146500000Y-120525000D03*
X146500000Y-118475000D03*
%TD*%
D33*
%TO.C,U1*%
X126750000Y-67500000D03*
X126750000Y-68770000D03*
X126750000Y-70040000D03*
X126750000Y-71310000D03*
X126750000Y-72580000D03*
X126750000Y-73850000D03*
X126750000Y-75120000D03*
X126750000Y-76390000D03*
X126750000Y-77660000D03*
X126750000Y-78930000D03*
X126750000Y-80200000D03*
X126750000Y-81470000D03*
X126750000Y-82740000D03*
X126750000Y-84010000D03*
D34*
X128515000Y-85260000D03*
X129785000Y-85260000D03*
X131055000Y-85260000D03*
X132325000Y-85260000D03*
X133595000Y-85260000D03*
X134865000Y-85260000D03*
X136135000Y-85260000D03*
X137405000Y-85260000D03*
X138675000Y-85260000D03*
X139945000Y-85260000D03*
X141215000Y-85260000D03*
X142485000Y-85260000D03*
D33*
X144250000Y-84010000D03*
X144250000Y-82740000D03*
X144250000Y-81470000D03*
X144250000Y-80200000D03*
X144250000Y-78930000D03*
X144250000Y-77660000D03*
X144250000Y-76390000D03*
X144250000Y-75120000D03*
X144250000Y-73850000D03*
X144250000Y-72580000D03*
X144250000Y-71310000D03*
X144250000Y-70040000D03*
X144250000Y-68770000D03*
X144250000Y-67500000D03*
D35*
X132600000Y-74520000D03*
X132600000Y-75920000D03*
X133300000Y-73820000D03*
X133300000Y-75220000D03*
X133300000Y-76620000D03*
X134000000Y-74520000D03*
D36*
X134000000Y-75220000D03*
D35*
X134000000Y-75920000D03*
X134700000Y-73820000D03*
X134700000Y-75220000D03*
X134700000Y-76620000D03*
X135400000Y-74520000D03*
X135400000Y-75920000D03*
%TD*%
D37*
%TO.C,Q2*%
X116050000Y-128375000D03*
X117950000Y-128375000D03*
X117000000Y-126500000D03*
%TD*%
D29*
%TO.C,C2*%
X142037500Y-129500000D03*
X139962500Y-129500000D03*
%TD*%
D38*
%TO.C,J1*%
X140848873Y-142810000D03*
X146628873Y-142810000D03*
D39*
X140538873Y-141745000D03*
X141338873Y-141745000D03*
D40*
X142488873Y-141745000D03*
X143488873Y-141745000D03*
X143988873Y-141745000D03*
X144988873Y-141745000D03*
D39*
X146138873Y-141745000D03*
X146938873Y-141745000D03*
X146938873Y-141745000D03*
X146138873Y-141745000D03*
D40*
X145488873Y-141745000D03*
X144488873Y-141745000D03*
X142988873Y-141745000D03*
X141988873Y-141745000D03*
D39*
X141338873Y-141745000D03*
X140538873Y-141745000D03*
D41*
X139418873Y-142310000D03*
D42*
X139418873Y-146490000D03*
D41*
X148058873Y-142310000D03*
D42*
X148058873Y-146490000D03*
%TD*%
D11*
%TO.C,R3*%
X120500000Y-98500000D03*
X118500000Y-98500000D03*
%TD*%
D10*
%TO.C,R12*%
X138000000Y-94000000D03*
X138000000Y-92000000D03*
%TD*%
%TO.C,R9*%
X142000000Y-110500000D03*
X142000000Y-108500000D03*
%TD*%
D22*
%TO.C,C14*%
X124995000Y-98367500D03*
X124995000Y-100442500D03*
%TD*%
D13*
%TO.C,C6*%
X150462500Y-129980000D03*
X152537500Y-129980000D03*
%TD*%
D21*
%TO.C,R1*%
X145000000Y-134000000D03*
X145000000Y-136000000D03*
%TD*%
D13*
%TO.C,C5*%
X150462500Y-126970000D03*
X152537500Y-126970000D03*
%TD*%
D16*
%TO.C,H4*%
X155058873Y-145990000D03*
D17*
X155058873Y-145990000D03*
%TD*%
D43*
%TO.C,J2*%
X152500000Y-88080000D03*
D44*
X152500000Y-85540000D03*
X152500000Y-83000000D03*
X152500000Y-80460000D03*
%TD*%
D10*
%TO.C,R14*%
X129500000Y-108000000D03*
X129500000Y-106000000D03*
%TD*%
D21*
%TO.C,R11*%
X146500000Y-123000000D03*
X146500000Y-125000000D03*
%TD*%
D16*
%TO.C,H2*%
X155250000Y-70390000D03*
D17*
X155250000Y-70390000D03*
%TD*%
M02*
