%TF.GenerationSoftware,KiCad,Pcbnew,10.0.1*%
%TF.CreationDate,2026-04-29T02:44:25-04:00*%
%TF.ProjectId,ESP_IMU_Board,4553505f-494d-4555-9f42-6f6172642e6b,rev?*%
%TF.SameCoordinates,Original*%
%TF.FileFunction,Copper,L1,Top*%
%TF.FilePolarity,Positive*%
%FSLAX46Y46*%
G04 Gerber Fmt 4.6, Leading zero omitted, Abs format (unit mm)*
G04 Created by KiCad (PCBNEW 10.0.1) date 2026-04-29 02:44:25*
%MOMM*%
%LPD*%
G01*
G04 APERTURE LIST*
G04 Aperture macros list*
%AMRoundRect*
0 Rectangle with rounded corners*
0 $1 Rounding radius*
0 $2 $3 $4 $5 $6 $7 $8 $9 X,Y pos of 4 corners*
0 Add a 4 corners polygon primitive as box body*
4,1,4,$2,$3,$4,$5,$6,$7,$8,$9,$2,$3,0*
0 Add four circle primitives for the rounded corners*
1,1,$1+$1,$2,$3*
1,1,$1+$1,$4,$5*
1,1,$1+$1,$6,$7*
1,1,$1+$1,$8,$9*
0 Add four rect primitives between the rounded corners*
20,1,$1+$1,$2,$3,$4,$5,0*
20,1,$1+$1,$4,$5,$6,$7,0*
20,1,$1+$1,$6,$7,$8,$9,0*
20,1,$1+$1,$8,$9,$2,$3,0*%
G04 Aperture macros list end*
%TA.AperFunction,SMDPad,CuDef*%
%ADD10RoundRect,0.250000X0.450000X-0.350000X0.450000X0.350000X-0.450000X0.350000X-0.450000X-0.350000X0*%
%TD*%
%TA.AperFunction,SMDPad,CuDef*%
%ADD11RoundRect,0.250000X0.350000X0.450000X-0.350000X0.450000X-0.350000X-0.450000X0.350000X-0.450000X0*%
%TD*%
%TA.AperFunction,SMDPad,CuDef*%
%ADD12R,1.700000X1.000000*%
%TD*%
%TA.AperFunction,SMDPad,CuDef*%
%ADD13RoundRect,0.250000X-0.337500X-0.475000X0.337500X-0.475000X0.337500X0.475000X-0.337500X0.475000X0*%
%TD*%
%TA.AperFunction,SMDPad,CuDef*%
%ADD14RoundRect,0.375000X0.375000X-0.625000X0.375000X0.625000X-0.375000X0.625000X-0.375000X-0.625000X0*%
%TD*%
%TA.AperFunction,SMDPad,CuDef*%
%ADD15RoundRect,0.500000X1.400000X-0.500000X1.400000X0.500000X-1.400000X0.500000X-1.400000X-0.500000X0*%
%TD*%
%TA.AperFunction,ComponentPad*%
%ADD16C,3.600000*%
%TD*%
%TA.AperFunction,ConnectorPad*%
%ADD17C,6.400000*%
%TD*%
%TA.AperFunction,SMDPad,CuDef*%
%ADD18RoundRect,0.250000X0.325000X0.450000X-0.325000X0.450000X-0.325000X-0.450000X0.325000X-0.450000X0*%
%TD*%
%TA.AperFunction,SMDPad,CuDef*%
%ADD19RoundRect,0.250000X-0.350000X-0.450000X0.350000X-0.450000X0.350000X0.450000X-0.350000X0.450000X0*%
%TD*%
%TA.AperFunction,SMDPad,CuDef*%
%ADD20RoundRect,0.250000X-0.450000X0.325000X-0.450000X-0.325000X0.450000X-0.325000X0.450000X0.325000X0*%
%TD*%
%TA.AperFunction,SMDPad,CuDef*%
%ADD21RoundRect,0.250000X-0.450000X0.350000X-0.450000X-0.350000X0.450000X-0.350000X0.450000X0.350000X0*%
%TD*%
%TA.AperFunction,SMDPad,CuDef*%
%ADD22RoundRect,0.250000X-0.475000X0.337500X-0.475000X-0.337500X0.475000X-0.337500X0.475000X0.337500X0*%
%TD*%
%TA.AperFunction,SMDPad,CuDef*%
%ADD23R,0.250000X0.675000*%
%TD*%
%TA.AperFunction,SMDPad,CuDef*%
%ADD24R,0.575000X0.250000*%
%TD*%
%TA.AperFunction,ComponentPad*%
%ADD25R,4.000000X4.000000*%
%TD*%
%TA.AperFunction,ComponentPad*%
%ADD26C,3.300000*%
%TD*%
%TA.AperFunction,ComponentPad*%
%ADD27C,3.500000*%
%TD*%
%TA.AperFunction,SMDPad,CuDef*%
%ADD28RoundRect,0.250000X0.337500X0.475000X-0.337500X0.475000X-0.337500X-0.475000X0.337500X-0.475000X0*%
%TD*%
%TA.AperFunction,ComponentPad*%
%ADD29RoundRect,0.250001X-1.149999X1.149999X-1.149999X-1.149999X1.149999X-1.149999X1.149999X1.149999X0*%
%TD*%
%TA.AperFunction,ComponentPad*%
%ADD30C,2.800000*%
%TD*%
%TA.AperFunction,SMDPad,CuDef*%
%ADD31RoundRect,0.250000X0.450000X-0.325000X0.450000X0.325000X-0.450000X0.325000X-0.450000X-0.325000X0*%
%TD*%
%TA.AperFunction,SMDPad,CuDef*%
%ADD32R,1.500000X0.900000*%
%TD*%
%TA.AperFunction,SMDPad,CuDef*%
%ADD33R,0.900000X1.500000*%
%TD*%
%TA.AperFunction,HeatsinkPad*%
%ADD34C,0.600000*%
%TD*%
%TA.AperFunction,HeatsinkPad*%
%ADD35R,3.900000X3.900000*%
%TD*%
%TA.AperFunction,SMDPad,CuDef*%
%ADD36RoundRect,0.150000X0.150000X-0.587500X0.150000X0.587500X-0.150000X0.587500X-0.150000X-0.587500X0*%
%TD*%
%TA.AperFunction,SMDPad,CuDef*%
%ADD37RoundRect,0.150000X-0.150000X-0.425000X0.150000X-0.425000X0.150000X0.425000X-0.150000X0.425000X0*%
%TD*%
%TA.AperFunction,SMDPad,CuDef*%
%ADD38RoundRect,0.075000X-0.075000X-0.500000X0.075000X-0.500000X0.075000X0.500000X-0.075000X0.500000X0*%
%TD*%
%TA.AperFunction,ComponentPad*%
%ADD39O,1.000000X2.100000*%
%TD*%
%TA.AperFunction,ComponentPad*%
%ADD40O,1.000000X1.600000*%
%TD*%
%TA.AperFunction,ComponentPad*%
%ADD41R,1.700000X1.700000*%
%TD*%
%TA.AperFunction,ComponentPad*%
%ADD42C,1.700000*%
%TD*%
%TA.AperFunction,ViaPad*%
%ADD43C,0.600000*%
%TD*%
%TA.AperFunction,Conductor*%
%ADD44C,0.200000*%
%TD*%
G04 APERTURE END LIST*
D10*
%TO.P,R13,1*%
%TO.N,+3.3V*%
X129500000Y-94000000D03*
%TO.P,R13,2*%
%TO.N,IMU_SDA*%
X129500000Y-92000000D03*
%TD*%
D11*
%TO.P,R8,1*%
%TO.N,+3.3V*%
X145500000Y-102000000D03*
%TO.P,R8,2*%
%TO.N,Net-(U3-ENV_SCL)*%
X143500000Y-102000000D03*
%TD*%
D12*
%TO.P,SW1,1,1_1*%
%TO.N,~{ESP_ENABLE}*%
X114408873Y-78600000D03*
X120708873Y-78600000D03*
%TO.P,SW1,2,2_2*%
%TO.N,GND*%
X114408873Y-82400000D03*
X120708873Y-82400000D03*
%TD*%
D13*
%TO.P,C1,1*%
%TO.N,PWR_IN*%
X135462500Y-129500000D03*
%TO.P,C1,2*%
%TO.N,GND*%
X137537500Y-129500000D03*
%TD*%
D14*
%TO.P,U2,1,GND_1*%
%TO.N,GND*%
X137200000Y-124140000D03*
%TO.P,U2,2,VO_2*%
%TO.N,+3.3V*%
X139500000Y-124140000D03*
D15*
X139500000Y-117840000D03*
D14*
%TO.P,U2,3,VI_3*%
%TO.N,PWR_IN*%
X141800000Y-124140000D03*
%TD*%
D16*
%TO.P,H1,1,1_1*%
%TO.N,GND*%
X115750000Y-70390000D03*
D17*
X115750000Y-70390000D03*
%TD*%
D18*
%TO.P,D1,1,K_1*%
%TO.N,PWR_IN*%
X134083873Y-132490000D03*
%TO.P,D1,2,A_2*%
%TO.N,Net-(D1-A)*%
X132033873Y-132490000D03*
%TD*%
D13*
%TO.P,C8,1*%
%TO.N,+3.3V*%
X150462500Y-136000000D03*
%TO.P,C8,2*%
%TO.N,GND*%
X152537500Y-136000000D03*
%TD*%
D19*
%TO.P,R7,1*%
%TO.N,Net-(U3-ENV_SDA)*%
X143500000Y-98500000D03*
%TO.P,R7,2*%
%TO.N,+3.3V*%
X145500000Y-98500000D03*
%TD*%
D13*
%TO.P,C7,1*%
%TO.N,+3.3V*%
X150462500Y-132990000D03*
%TO.P,C7,2*%
%TO.N,GND*%
X152537500Y-132990000D03*
%TD*%
D20*
%TO.P,D3,1,K_1*%
%TO.N,PWR_IN*%
X137000000Y-135975000D03*
%TO.P,D3,2,A_2*%
%TO.N,Net-(D3-A)*%
X137000000Y-138025000D03*
%TD*%
D19*
%TO.P,R5,1*%
%TO.N,GND*%
X116000000Y-133000000D03*
%TO.P,R5,2*%
%TO.N,Net-(Q2-G)*%
X118000000Y-133000000D03*
%TD*%
D21*
%TO.P,R2,1*%
%TO.N,Net-(J1-CC1)*%
X142050000Y-134000000D03*
%TO.P,R2,2*%
%TO.N,GND*%
X142050000Y-136000000D03*
%TD*%
D16*
%TO.P,H3,1,1_1*%
%TO.N,GND*%
X115558873Y-145990000D03*
D17*
X115558873Y-145990000D03*
%TD*%
D22*
%TO.P,C11,1*%
%TO.N,Net-(U3-CAP)*%
X133000000Y-106962500D03*
%TO.P,C11,2*%
%TO.N,GND*%
X133000000Y-109037500D03*
%TD*%
D23*
%TO.P,U3,1,RESV_NC_1*%
%TO.N,unconnected-(U3-RESV_NC-Pad1)*%
X131500000Y-100500000D03*
D24*
%TO.P,U3,2,GND_2*%
%TO.N,GND*%
X131437500Y-101312500D03*
%TO.P,U3,3,VDD_3*%
%TO.N,+3.3V*%
X131437500Y-101812500D03*
%TO.P,U3,4,~{BOOT}_4*%
%TO.N,~{IMU_BOOTN}*%
X131437500Y-102312500D03*
%TO.P,U3,5,PS1_5*%
%TO.N,GND*%
X131437500Y-102812500D03*
D23*
%TO.P,U3,6,PS0/WAKE_6*%
X131500000Y-103625000D03*
%TO.P,U3,7,RESV_NC_7*%
%TO.N,unconnected-(U3-RESV_NC-Pad7)*%
X132000000Y-103625000D03*
%TO.P,U3,8,RESV_NC_8*%
%TO.N,unconnected-(U3-RESV_NC-Pad8)*%
X132500000Y-103625000D03*
%TO.P,U3,9,CAP_9*%
%TO.N,Net-(U3-CAP)*%
X133000000Y-103625000D03*
%TO.P,U3,10,CLKSEL0_10*%
%TO.N,+3.3V*%
X133500000Y-103625000D03*
%TO.P,U3,11,~{RST}_11*%
%TO.N,~{IMU_RST}*%
X134000000Y-103625000D03*
%TO.P,U3,12,RESV_NC_12*%
%TO.N,unconnected-(U3-RESV_NC-Pad12)*%
X134500000Y-103625000D03*
%TO.P,U3,13,RESV_NC_13*%
%TO.N,unconnected-(U3-RESV_NC-Pad13)*%
X135000000Y-103625000D03*
%TO.P,U3,14,~{H_INT}_14*%
%TO.N,~{IMU_INT}*%
X135500000Y-103625000D03*
%TO.P,U3,15,ENV_SCL_15*%
%TO.N,Net-(U3-ENV_SCL)*%
X136000000Y-103625000D03*
D24*
%TO.P,U3,16,ENV_SDA_16*%
%TO.N,Net-(U3-ENV_SDA)*%
X136062500Y-102812500D03*
%TO.P,U3,17,SA0/H_MOSI_17*%
%TO.N,unconnected-(U3-SA0{slash}H_MOSI-Pad17)*%
X136062500Y-102312500D03*
%TO.P,U3,18,~{H_CS}_18*%
%TO.N,unconnected-(U3-~{H_CS}-Pad18)*%
X136062500Y-101812500D03*
%TO.P,U3,19,H_SCL/SCK/RX_19*%
%TO.N,IMU_SCL*%
X136062500Y-101312500D03*
D23*
%TO.P,U3,20,H_SDA/H_MISO/TX_20*%
%TO.N,IMU_SDA*%
X136000000Y-100500000D03*
%TO.P,U3,21,RESV_NC_21*%
%TO.N,unconnected-(U3-RESV_NC-Pad21)*%
X135500000Y-100500000D03*
%TO.P,U3,22,RESV_NC_22*%
%TO.N,unconnected-(U3-RESV_NC-Pad22)*%
X135000000Y-100500000D03*
%TO.P,U3,23,RESV_NC_23*%
%TO.N,unconnected-(U3-RESV_NC-Pad23)*%
X134500000Y-100500000D03*
%TO.P,U3,24,RESV_NC_24*%
%TO.N,unconnected-(U3-RESV_NC-Pad24)*%
X134000000Y-100500000D03*
%TO.P,U3,25,GNDIO_25*%
%TO.N,GND*%
X133500000Y-100500000D03*
%TO.P,U3,26,XOUT32/CLKSEL1_26*%
X133000000Y-100500000D03*
%TO.P,U3,27,XIN32_27*%
%TO.N,unconnected-(U3-XIN32-Pad27)*%
X132500000Y-100500000D03*
%TO.P,U3,28,VDDIO_28*%
%TO.N,+3.3V*%
X132000000Y-100500000D03*
%TD*%
D25*
%TO.P,J3,1*%
%TO.N,Net-(D1-A)*%
X128058873Y-137310000D03*
D26*
%TO.P,J3,2*%
%TO.N,GND*%
X128058873Y-143310000D03*
D27*
%TO.P,J3,MP*%
%TO.N,N/C*%
X123558873Y-144310000D03*
X132558873Y-144310000D03*
%TD*%
D12*
%TO.P,SW2,1,1_1*%
%TO.N,~{ESP_BOOT}*%
X120500000Y-93500000D03*
X114200000Y-93500000D03*
%TO.P,SW2,2,2_2*%
%TO.N,GND*%
X120500000Y-89700000D03*
X114200000Y-89700000D03*
%TD*%
D28*
%TO.P,C13,1*%
%TO.N,+3.3V*%
X120500000Y-102000000D03*
%TO.P,C13,2*%
%TO.N,GND*%
X118425000Y-102000000D03*
%TD*%
D11*
%TO.P,R4,1*%
%TO.N,AUTON_LIGHT*%
X129000000Y-130000000D03*
%TO.P,R4,2*%
%TO.N,Net-(Q2-G)*%
X127000000Y-130000000D03*
%TD*%
D10*
%TO.P,R6,1*%
%TO.N,GND*%
X124000000Y-128000000D03*
%TO.P,R6,2*%
%TO.N,Net-(Q2-S)*%
X124000000Y-126000000D03*
%TD*%
D29*
%TO.P,J5,1,Pin_1_1*%
%TO.N,AUTON_LIGHT_GND*%
X117032500Y-114750000D03*
D30*
%TO.P,J5,2,Pin_2_2*%
%TO.N,GND*%
X117032500Y-119750000D03*
%TD*%
D28*
%TO.P,C12,1*%
%TO.N,+3.3V*%
X120500000Y-106500000D03*
%TO.P,C12,2*%
%TO.N,GND*%
X118425000Y-106500000D03*
%TD*%
D31*
%TO.P,D2,1,K_1*%
%TO.N,Net-(D2-K)*%
X146500000Y-120525000D03*
%TO.P,D2,2,A_2*%
%TO.N,+3.3V*%
X146500000Y-118475000D03*
%TD*%
D32*
%TO.P,U1,1,GND_1*%
%TO.N,GND*%
X126750000Y-67500000D03*
%TO.P,U1,2,3V3_2*%
%TO.N,+3.3V*%
X126750000Y-68770000D03*
%TO.P,U1,3,EN_3*%
%TO.N,~{ESP_ENABLE}*%
X126750000Y-70040000D03*
%TO.P,U1,4,IO4_4*%
%TO.N,~{IMU_BOOTN}*%
X126750000Y-71310000D03*
%TO.P,U1,5,IO5_5*%
%TO.N,~{IMU_INT}*%
X126750000Y-72580000D03*
%TO.P,U1,6,IO6_6*%
%TO.N,unconnected-(U1-IO6-Pad6)*%
X126750000Y-73850000D03*
%TO.P,U1,7,IO7_7*%
%TO.N,unconnected-(U1-IO7-Pad7)*%
X126750000Y-75120000D03*
%TO.P,U1,8,IO15_8*%
%TO.N,unconnected-(U1-IO15-Pad8)*%
X126750000Y-76390000D03*
%TO.P,U1,9,IO16_9*%
%TO.N,unconnected-(U1-IO16-Pad9)*%
X126750000Y-77660000D03*
%TO.P,U1,10,IO17_10*%
%TO.N,unconnected-(U1-IO17-Pad10)*%
X126750000Y-78930000D03*
%TO.P,U1,11,IO18_11*%
%TO.N,unconnected-(U1-IO18-Pad11)*%
X126750000Y-80200000D03*
%TO.P,U1,12,IO8_12*%
%TO.N,IMU_SDA*%
X126750000Y-81470000D03*
%TO.P,U1,13,USB_D-_13*%
%TO.N,USB-*%
X126750000Y-82740000D03*
%TO.P,U1,14,USB_D+_14*%
%TO.N,USB+*%
X126750000Y-84010000D03*
D33*
%TO.P,U1,15,IO3_15*%
%TO.N,unconnected-(U1-IO3-Pad15)*%
X128515000Y-85260000D03*
%TO.P,U1,16,IO46_16*%
%TO.N,unconnected-(U1-IO46-Pad16)*%
X129785000Y-85260000D03*
%TO.P,U1,17,IO9_17*%
%TO.N,IMU_SCL*%
X131055000Y-85260000D03*
%TO.P,U1,18,IO10_18*%
%TO.N,unconnected-(U1-IO10-Pad18)*%
X132325000Y-85260000D03*
%TO.P,U1,19,IO11_19*%
%TO.N,unconnected-(U1-IO11-Pad19)*%
X133595000Y-85260000D03*
%TO.P,U1,20,IO12_20*%
%TO.N,unconnected-(U1-IO12-Pad20)*%
X134865000Y-85260000D03*
%TO.P,U1,21,IO13_21*%
%TO.N,unconnected-(U1-IO13-Pad21)*%
X136135000Y-85260000D03*
%TO.P,U1,22,IO14_22*%
%TO.N,unconnected-(U1-IO14-Pad22)*%
X137405000Y-85260000D03*
%TO.P,U1,23,IO21_23*%
%TO.N,unconnected-(U1-IO21-Pad23)*%
X138675000Y-85260000D03*
%TO.P,U1,24,IO47_24*%
%TO.N,unconnected-(U1-IO47-Pad24)*%
X139945000Y-85260000D03*
%TO.P,U1,25,IO48_25*%
%TO.N,unconnected-(U1-IO48-Pad25)*%
X141215000Y-85260000D03*
%TO.P,U1,26,IO45_26*%
%TO.N,unconnected-(U1-IO45-Pad26)*%
X142485000Y-85260000D03*
D32*
%TO.P,U1,27,IO0_27*%
%TO.N,~{ESP_BOOT}*%
X144250000Y-84010000D03*
%TO.P,U1,28,IO35_28*%
%TO.N,unconnected-(U1-IO35-Pad28)*%
X144250000Y-82740000D03*
%TO.P,U1,29,IO36_29*%
%TO.N,unconnected-(U1-IO36-Pad29)*%
X144250000Y-81470000D03*
%TO.P,U1,30,IO37_30*%
%TO.N,unconnected-(U1-IO37-Pad30)*%
X144250000Y-80200000D03*
%TO.P,U1,31,IO38_31*%
%TO.N,unconnected-(U1-IO38-Pad31)*%
X144250000Y-78930000D03*
%TO.P,U1,32,IO39_32*%
%TO.N,unconnected-(U1-IO39-Pad32)*%
X144250000Y-77660000D03*
%TO.P,U1,33,IO40_33*%
%TO.N,AUTON_LIGHT*%
X144250000Y-76390000D03*
%TO.P,U1,34,IO41_34*%
%TO.N,unconnected-(U1-IO41-Pad34)*%
X144250000Y-75120000D03*
%TO.P,U1,35,IO42_35*%
%TO.N,unconnected-(U1-IO42-Pad35)*%
X144250000Y-73850000D03*
%TO.P,U1,36,RXD0_36*%
%TO.N,UART_RX*%
X144250000Y-72580000D03*
%TO.P,U1,37,TXD0_37*%
%TO.N,UART_TX*%
X144250000Y-71310000D03*
%TO.P,U1,38,IO2_38*%
%TO.N,unconnected-(U1-IO2-Pad38)*%
X144250000Y-70040000D03*
%TO.P,U1,39,IO1_39*%
%TO.N,~{IMU_RST}*%
X144250000Y-68770000D03*
%TO.P,U1,40,GND_40*%
%TO.N,GND*%
X144250000Y-67500000D03*
D34*
%TO.P,U1,41,GND_41*%
X132600000Y-74520000D03*
X132600000Y-75920000D03*
X133300000Y-73820000D03*
X133300000Y-75220000D03*
X133300000Y-76620000D03*
X134000000Y-74520000D03*
D35*
X134000000Y-75220000D03*
D34*
X134000000Y-75920000D03*
X134700000Y-73820000D03*
X134700000Y-75220000D03*
X134700000Y-76620000D03*
X135400000Y-74520000D03*
X135400000Y-75920000D03*
%TD*%
D36*
%TO.P,Q2,1,G_1*%
%TO.N,Net-(Q2-G)*%
X116050000Y-128375000D03*
%TO.P,Q2,2,S_2*%
%TO.N,Net-(Q2-S)*%
X117950000Y-128375000D03*
%TO.P,Q2,3,D_3*%
%TO.N,AUTON_LIGHT_GND*%
X117000000Y-126500000D03*
%TD*%
D28*
%TO.P,C2,1*%
%TO.N,+3.3V*%
X142037500Y-129500000D03*
%TO.P,C2,2*%
%TO.N,GND*%
X139962500Y-129500000D03*
%TD*%
D37*
%TO.P,J1,A1,GND_A1*%
%TO.N,GND*%
X140538873Y-141745000D03*
%TO.P,J1,A4,VBUS_A4*%
%TO.N,Net-(D3-A)*%
X141338873Y-141745000D03*
D38*
%TO.P,J1,A5,CC1_A5*%
%TO.N,Net-(J1-CC1)*%
X142488873Y-141745000D03*
%TO.P,J1,A6,D+_A6*%
%TO.N,USB+*%
X143488873Y-141745000D03*
%TO.P,J1,A7,D-_A7*%
%TO.N,USB-*%
X143988873Y-141745000D03*
%TO.P,J1,A8*%
%TO.N,N/C*%
X144988873Y-141745000D03*
D37*
%TO.P,J1,A9,VBUS_A9*%
%TO.N,Net-(D3-A)*%
X146138873Y-141745000D03*
%TO.P,J1,A12,GND_A12*%
%TO.N,GND*%
X146938873Y-141745000D03*
%TO.P,J1,B1,GND_B1*%
X146938873Y-141745000D03*
%TO.P,J1,B4,VBUS_B4*%
%TO.N,Net-(D3-A)*%
X146138873Y-141745000D03*
D38*
%TO.P,J1,B5,CC2_B5*%
%TO.N,Net-(J1-CC2)*%
X145488873Y-141745000D03*
%TO.P,J1,B6,D+_B6*%
%TO.N,USB+*%
X144488873Y-141745000D03*
%TO.P,J1,B7,D-_B7*%
%TO.N,USB-*%
X142988873Y-141745000D03*
%TO.P,J1,B8*%
%TO.N,N/C*%
X141988873Y-141745000D03*
D37*
%TO.P,J1,B9,VBUS_B9*%
%TO.N,Net-(D3-A)*%
X141338873Y-141745000D03*
%TO.P,J1,B12,GND_B12*%
%TO.N,GND*%
X140538873Y-141745000D03*
D39*
%TO.P,J1,SH,SHIELD_SH*%
X139418873Y-142310000D03*
D40*
X139418873Y-146490000D03*
D39*
X148058873Y-142310000D03*
D40*
X148058873Y-146490000D03*
%TD*%
D11*
%TO.P,R3,1*%
%TO.N,+3.3V*%
X120500000Y-98500000D03*
%TO.P,R3,2*%
%TO.N,~{ESP_ENABLE}*%
X118500000Y-98500000D03*
%TD*%
D10*
%TO.P,R12,1*%
%TO.N,+3.3V*%
X138000000Y-94000000D03*
%TO.P,R12,2*%
%TO.N,IMU_SCL*%
X138000000Y-92000000D03*
%TD*%
%TO.P,R9,1*%
%TO.N,+3.3V*%
X142000000Y-110500000D03*
%TO.P,R9,2*%
%TO.N,~{IMU_RST}*%
X142000000Y-108500000D03*
%TD*%
D22*
%TO.P,C14,1*%
%TO.N,~{ESP_ENABLE}*%
X124995000Y-98367500D03*
%TO.P,C14,2*%
%TO.N,GND*%
X124995000Y-100442500D03*
%TD*%
D13*
%TO.P,C6,1*%
%TO.N,PWR_IN*%
X150462500Y-129980000D03*
%TO.P,C6,2*%
%TO.N,GND*%
X152537500Y-129980000D03*
%TD*%
D21*
%TO.P,R1,1*%
%TO.N,Net-(J1-CC2)*%
X145000000Y-134000000D03*
%TO.P,R1,2*%
%TO.N,GND*%
X145000000Y-136000000D03*
%TD*%
D13*
%TO.P,C5,1*%
%TO.N,PWR_IN*%
X150462500Y-126970000D03*
%TO.P,C5,2*%
%TO.N,GND*%
X152537500Y-126970000D03*
%TD*%
D16*
%TO.P,H4,1,1_1*%
%TO.N,GND*%
X155058873Y-145990000D03*
D17*
X155058873Y-145990000D03*
%TD*%
D41*
%TO.P,J2,1,Pin_1_1*%
%TO.N,+3.3V*%
X152500000Y-88080000D03*
D42*
%TO.P,J2,2,Pin_2_2*%
%TO.N,UART_RX*%
X152500000Y-85540000D03*
%TO.P,J2,3,Pin_3_3*%
%TO.N,UART_TX*%
X152500000Y-83000000D03*
%TO.P,J2,4,Pin_4_4*%
%TO.N,GND*%
X152500000Y-80460000D03*
%TD*%
D10*
%TO.P,R14,1*%
%TO.N,+3.3V*%
X129500000Y-108000000D03*
%TO.P,R14,2*%
%TO.N,~{IMU_BOOTN}*%
X129500000Y-106000000D03*
%TD*%
D21*
%TO.P,R11,1*%
%TO.N,Net-(D2-K)*%
X146500000Y-123000000D03*
%TO.P,R11,2*%
%TO.N,GND*%
X146500000Y-125000000D03*
%TD*%
D16*
%TO.P,H2,1,1_1*%
%TO.N,GND*%
X155250000Y-70390000D03*
D17*
X155250000Y-70390000D03*
%TD*%
D43*
%TO.N,+3.3V*%
X137000000Y-99500000D03*
X130000000Y-102000000D03*
X134068750Y-104931250D03*
X125000000Y-69000000D03*
X132500000Y-99500000D03*
%TO.N,GND*%
X124000000Y-128000000D03*
X120500000Y-89700000D03*
X153000000Y-77500000D03*
X134000000Y-75220000D03*
X118425000Y-102000000D03*
X154500000Y-131470000D03*
X133000000Y-109037500D03*
X137500000Y-130500000D03*
X143500000Y-137000000D03*
X143558873Y-145490000D03*
X144250000Y-67500000D03*
X126750000Y-67500000D03*
X128058873Y-140490000D03*
X124995000Y-100442500D03*
X116000000Y-133000000D03*
X114500000Y-82400000D03*
X133500000Y-102000000D03*
X157558873Y-142990000D03*
X113058873Y-142990000D03*
X146500000Y-126500000D03*
%TO.N,PWR_IN*%
X134000000Y-128500000D03*
X142000000Y-124000000D03*
%TO.N,~{IMU_INT}*%
X138000000Y-105000000D03*
X124500000Y-74500000D03*
%TO.N,IMU_SCL*%
X141500000Y-96500000D03*
X143000000Y-94000000D03*
%TO.N,~{ESP_BOOT}*%
X141500000Y-82500000D03*
X121000000Y-87500000D03*
%TO.N,AUTON_LIGHT*%
X130500000Y-129500000D03*
X140900000Y-90100000D03*
%TO.N,USB-*%
X133181802Y-79500000D03*
X143500000Y-139870000D03*
%TO.N,USB+*%
X134500000Y-78181802D03*
X144000000Y-143620000D03*
%TD*%
%TO.N,+3.3V*%
D44*
X141500000Y-110500000D02*
X142000000Y-110500000D01*
X150030000Y-136000000D02*
X150462500Y-136000000D01*
X145500000Y-98000000D02*
X152500000Y-91000000D01*
X129500000Y-94000000D02*
X129500000Y-96500000D01*
X125000000Y-69000000D02*
X126520000Y-69000000D01*
X139500000Y-117840000D02*
X139500000Y-124140000D01*
X141000000Y-94000000D02*
X145500000Y-98500000D01*
X139500000Y-117840000D02*
X145865000Y-117840000D01*
X126000000Y-106500000D02*
X127500000Y-108000000D01*
X133500000Y-104362500D02*
X133500000Y-103625000D01*
X150462500Y-136000000D02*
X150462500Y-132990000D01*
X138000000Y-98500000D02*
X137000000Y-99500000D01*
X142037500Y-129500000D02*
X142037500Y-126677500D01*
X146972500Y-129500000D02*
X150462500Y-132990000D01*
X120500000Y-98500000D02*
X120500000Y-102000000D01*
X139500000Y-112500000D02*
X139500000Y-110362500D01*
X130187500Y-101812500D02*
X131437500Y-101812500D01*
X145500000Y-98500000D02*
X145500000Y-102000000D01*
X145865000Y-117840000D02*
X146500000Y-118475000D01*
X129660000Y-108000000D02*
X139500000Y-117840000D01*
X145500000Y-98500000D02*
X145500000Y-98000000D01*
X139500000Y-110362500D02*
X134068750Y-104931250D01*
X127500000Y-108000000D02*
X129500000Y-108000000D01*
X142037500Y-129500000D02*
X146972500Y-129500000D01*
X120500000Y-106500000D02*
X126000000Y-106500000D01*
X129500000Y-108000000D02*
X129660000Y-108000000D01*
X138000000Y-94000000D02*
X141000000Y-94000000D01*
X126520000Y-69000000D02*
X126750000Y-68770000D01*
X139500000Y-112500000D02*
X141500000Y-110500000D01*
X138000000Y-94000000D02*
X138000000Y-98500000D01*
X139500000Y-117840000D02*
X139500000Y-112500000D01*
X132000000Y-100000000D02*
X132500000Y-99500000D01*
X132000000Y-100500000D02*
X132000000Y-100000000D01*
X142037500Y-126677500D02*
X139500000Y-124140000D01*
X120500000Y-102000000D02*
X120500000Y-106500000D01*
X152500000Y-88080000D02*
X152500000Y-91000000D01*
X130000000Y-102000000D02*
X130187500Y-101812500D01*
X129500000Y-96500000D02*
X132500000Y-99500000D01*
X134068750Y-104931250D02*
X133500000Y-104362500D01*
%TO.N,IMU_SDA*%
X126750000Y-81470000D02*
X125530000Y-81470000D01*
X136000000Y-98500000D02*
X136000000Y-100500000D01*
X129500000Y-90000000D02*
X129500000Y-92000000D01*
X124500000Y-85000000D02*
X129500000Y-90000000D01*
X129500000Y-92000000D02*
X136000000Y-98500000D01*
X124500000Y-82500000D02*
X124500000Y-85000000D01*
X125530000Y-81470000D02*
X124500000Y-82500000D01*
%TO.N,Net-(U3-ENV_SCL)*%
X136000000Y-103625000D02*
X141875000Y-103625000D01*
X141875000Y-103625000D02*
X143500000Y-102000000D01*
%TO.N,~{ESP_ENABLE}*%
X114500000Y-78600000D02*
X114900000Y-78600000D01*
X114408873Y-78600000D02*
X120708873Y-78600000D01*
X118500000Y-98500000D02*
X115500000Y-98500000D01*
X120500000Y-96500000D02*
X118782842Y-98217158D01*
X114408873Y-78600000D02*
X114500000Y-78600000D01*
X112500000Y-95500000D02*
X112500000Y-80508873D01*
X115500000Y-98500000D02*
X112500000Y-95500000D01*
X112500000Y-80508873D02*
X114408873Y-78600000D01*
X125800000Y-70040000D02*
X126750000Y-70040000D01*
X120708873Y-75131127D02*
X125800000Y-70040000D01*
X123127500Y-96500000D02*
X120500000Y-96500000D01*
X120708873Y-78600000D02*
X120708873Y-75131127D01*
X124995000Y-98367500D02*
X123127500Y-96500000D01*
X114900000Y-78600000D02*
X115000000Y-78500000D01*
%TO.N,GND*%
X145000000Y-136000000D02*
X144500000Y-136000000D01*
X142050000Y-136000000D02*
X142500000Y-136000000D01*
X120798873Y-82010000D02*
X120708873Y-82100000D01*
X133500000Y-100500000D02*
X133500000Y-102000000D01*
X113058873Y-143490000D02*
X115558873Y-145990000D01*
X133000000Y-101500000D02*
X133500000Y-102000000D01*
X157558873Y-143490000D02*
X157558873Y-142990000D01*
X146938873Y-141745000D02*
X147493873Y-141745000D01*
X152500000Y-80460000D02*
X152500000Y-78000000D01*
X131500000Y-107537500D02*
X133000000Y-109037500D01*
X152537500Y-126970000D02*
X152537500Y-129980000D01*
X147493873Y-141745000D02*
X148058873Y-142310000D01*
X131500000Y-103625000D02*
X131500000Y-107537500D01*
X152537500Y-132990000D02*
X152537500Y-136000000D01*
X139983873Y-141745000D02*
X139418873Y-142310000D01*
X142500000Y-136000000D02*
X143500000Y-137000000D01*
X114200000Y-82608873D02*
X114408873Y-82400000D01*
X140538873Y-141745000D02*
X139983873Y-141745000D01*
X132687500Y-102812500D02*
X133500000Y-102000000D01*
X139418873Y-142310000D02*
X139418873Y-146490000D01*
X155058873Y-145990000D02*
X157558873Y-143490000D01*
X143500000Y-146490000D02*
X148058873Y-146490000D01*
X137537500Y-129500000D02*
X137537500Y-130462500D01*
X114200000Y-89700000D02*
X120500000Y-89700000D01*
X137537500Y-130462500D02*
X137500000Y-130500000D01*
X142558873Y-146490000D02*
X143558873Y-145490000D01*
X114500000Y-82400000D02*
X120708873Y-82400000D01*
X133000000Y-100500000D02*
X133000000Y-101500000D01*
X137200000Y-129162500D02*
X137537500Y-129500000D01*
X113058873Y-142990000D02*
X113058873Y-143490000D01*
X146500000Y-125000000D02*
X146500000Y-126500000D01*
X152500000Y-78000000D02*
X153000000Y-77500000D01*
X131437500Y-102812500D02*
X132687500Y-102812500D01*
X137200000Y-124140000D02*
X137200000Y-129162500D01*
X144500000Y-136000000D02*
X143500000Y-137000000D01*
X137537500Y-129500000D02*
X139962500Y-129500000D01*
X132812500Y-101312500D02*
X133500000Y-102000000D01*
X114408873Y-82400000D02*
X114500000Y-82400000D01*
X133000000Y-109037500D02*
X133037500Y-109037500D01*
X139418873Y-146490000D02*
X142000000Y-146490000D01*
X152980000Y-132990000D02*
X154500000Y-131470000D01*
X153010000Y-129980000D02*
X154500000Y-131470000D01*
X118425000Y-106500000D02*
X118425000Y-102000000D01*
X128058873Y-143310000D02*
X128058873Y-140490000D01*
X142000000Y-146490000D02*
X142558873Y-146490000D01*
X148058873Y-142310000D02*
X148058873Y-146490000D01*
X152537500Y-129980000D02*
X153010000Y-129980000D01*
X152537500Y-132990000D02*
X152980000Y-132990000D01*
X131437500Y-101312500D02*
X132812500Y-101312500D01*
X142000000Y-146490000D02*
X143500000Y-146490000D01*
X152537500Y-129980000D02*
X152537500Y-132990000D01*
%TO.N,PWR_IN*%
X144760000Y-127100000D02*
X150332500Y-127100000D01*
X150000000Y-126970000D02*
X150462500Y-126970000D01*
X150372500Y-130070000D02*
X150462500Y-129980000D01*
X150332500Y-127100000D02*
X150462500Y-126970000D01*
X135462500Y-129500000D02*
X135462500Y-131111373D01*
X135462500Y-129500000D02*
X135000000Y-129500000D01*
X150462500Y-129980000D02*
X150462500Y-126970000D01*
X135000000Y-129500000D02*
X134000000Y-128500000D01*
X135462500Y-131111373D02*
X134083873Y-132490000D01*
X141940000Y-124000000D02*
X141800000Y-124140000D01*
X142000000Y-124000000D02*
X141940000Y-124000000D01*
X137000000Y-135406127D02*
X134083873Y-132490000D01*
X137000000Y-135975000D02*
X137000000Y-135406127D01*
X141800000Y-124140000D02*
X144760000Y-127100000D01*
%TO.N,Net-(D1-A)*%
X132033873Y-133335000D02*
X132033873Y-132490000D01*
X128058873Y-137310000D02*
X132033873Y-133335000D01*
%TO.N,Net-(U3-ENV_SDA)*%
X136062500Y-102812500D02*
X139187500Y-102812500D01*
X139187500Y-102812500D02*
X143500000Y-98500000D01*
%TO.N,Net-(D3-A)*%
X138193872Y-138025000D02*
X137000000Y-138025000D01*
X141338873Y-141745000D02*
X141338873Y-142338873D01*
X144780000Y-144220000D02*
X145953873Y-143046127D01*
X145953873Y-141930000D02*
X146138873Y-141745000D01*
X146138873Y-142202410D02*
X146138873Y-141745000D01*
X141338873Y-141745000D02*
X141338873Y-141170001D01*
X141338873Y-141170001D02*
X138193872Y-138025000D01*
X141338873Y-142338873D02*
X143220000Y-144220000D01*
X143220000Y-144220000D02*
X144780000Y-144220000D01*
X145953873Y-143046127D02*
X145953873Y-141930000D01*
%TO.N,Net-(Q2-G)*%
X123500000Y-133000000D02*
X118000000Y-133000000D01*
X127000000Y-130000000D02*
X126500000Y-130000000D01*
X116050000Y-131050000D02*
X118000000Y-133000000D01*
X116050000Y-128375000D02*
X116050000Y-131050000D01*
X126500000Y-130000000D02*
X123500000Y-133000000D01*
%TO.N,Net-(J1-CC1)*%
X141050000Y-139698717D02*
X142488873Y-141137590D01*
X142050000Y-134000000D02*
X141050000Y-135000000D01*
X142488873Y-141137590D02*
X142488873Y-141745000D01*
X141050000Y-135000000D02*
X141050000Y-139698717D01*
%TO.N,Net-(U3-CAP)*%
X133000000Y-103625000D02*
X133000000Y-106962500D01*
%TO.N,~{IMU_BOOTN}*%
X130925000Y-102312500D02*
X129500000Y-103737500D01*
X128000000Y-104500000D02*
X129500000Y-106000000D01*
X129500000Y-103737500D02*
X129500000Y-106000000D01*
X126220000Y-71310000D02*
X122500000Y-75030000D01*
X128000000Y-90000000D02*
X128000000Y-104500000D01*
X122500000Y-84500000D02*
X128000000Y-90000000D01*
X131437500Y-102312500D02*
X130925000Y-102312500D01*
X126750000Y-71310000D02*
X126220000Y-71310000D01*
X122500000Y-75030000D02*
X122500000Y-84500000D01*
%TO.N,~{IMU_RST}*%
X134000000Y-103625000D02*
X134000000Y-104187500D01*
X157500000Y-93000000D02*
X157500000Y-78500000D01*
X134762500Y-104262500D02*
X139000000Y-108500000D01*
X142000000Y-108500000D02*
X157500000Y-93000000D01*
X157500000Y-78500000D02*
X147770000Y-68770000D01*
X134075000Y-104262500D02*
X134762500Y-104262500D01*
X139000000Y-108500000D02*
X142000000Y-108500000D01*
X147770000Y-68770000D02*
X144250000Y-68770000D01*
X134000000Y-104187500D02*
X134075000Y-104262500D01*
%TO.N,~{IMU_INT}*%
X124500000Y-73880000D02*
X125800000Y-72580000D01*
X124500000Y-74500000D02*
X124500000Y-73880000D01*
X136312500Y-105000000D02*
X138000000Y-105000000D01*
X135500000Y-103625000D02*
X135500000Y-104187500D01*
X135500000Y-104187500D02*
X136312500Y-105000000D01*
X125800000Y-72580000D02*
X126750000Y-72580000D01*
%TO.N,IMU_SCL*%
X136062500Y-101312500D02*
X136687500Y-101312500D01*
X136687500Y-101312500D02*
X141500000Y-96500000D01*
X143000000Y-94000000D02*
X141000000Y-92000000D01*
X131055000Y-86210000D02*
X131055000Y-85260000D01*
X138000000Y-92000000D02*
X136845000Y-92000000D01*
X141000000Y-92000000D02*
X138000000Y-92000000D01*
X136845000Y-92000000D02*
X131055000Y-86210000D01*
%TO.N,~{ESP_BOOT}*%
X122500000Y-89000000D02*
X121000000Y-87500000D01*
X120500000Y-93500000D02*
X122500000Y-91500000D01*
X122500000Y-91500000D02*
X122500000Y-89000000D01*
X143010000Y-84010000D02*
X144250000Y-84010000D01*
X141500000Y-82500000D02*
X143010000Y-84010000D01*
X114200000Y-93500000D02*
X120500000Y-93500000D01*
%TO.N,AUTON_LIGHT*%
X145890000Y-76390000D02*
X144250000Y-76390000D01*
X146500000Y-77000000D02*
X145890000Y-76390000D01*
X130000000Y-130000000D02*
X130500000Y-129500000D01*
X129000000Y-130000000D02*
X130000000Y-130000000D01*
X146500000Y-84500000D02*
X146500000Y-77000000D01*
X140900000Y-90100000D02*
X146500000Y-84500000D01*
%TO.N,Net-(Q2-S)*%
X117950000Y-128375000D02*
X120325000Y-126000000D01*
X120325000Y-126000000D02*
X124000000Y-126000000D01*
%TO.N,AUTON_LIGHT_GND*%
X120500000Y-118217500D02*
X120500000Y-123000000D01*
X117032500Y-114750000D02*
X120500000Y-118217500D01*
X120500000Y-123000000D02*
X117000000Y-126500000D01*
%TO.N,Net-(D2-K)*%
X146500000Y-120525000D02*
X146500000Y-123000000D01*
%TO.N,USB-*%
X142988873Y-141137590D02*
X143256463Y-140870000D01*
X128285001Y-83150000D02*
X127875001Y-82740000D01*
X143500000Y-140870000D02*
X143721283Y-140870000D01*
X142988873Y-141745000D02*
X142988873Y-141137590D01*
X143721283Y-140870000D02*
X143988873Y-141137590D01*
X129531802Y-83150000D02*
X128285001Y-83150000D01*
X143256463Y-140870000D02*
X143500000Y-140870000D01*
X133181802Y-79500000D02*
X129531802Y-83150000D01*
X143988873Y-141137590D02*
X143988873Y-141745000D01*
X127875001Y-82740000D02*
X126750000Y-82740000D01*
X143500000Y-140870000D02*
X143500000Y-139870000D01*
%TO.N,USB+*%
X144000000Y-142620000D02*
X144000000Y-143620000D01*
X133218198Y-80100000D02*
X129718198Y-83600000D01*
X134500000Y-78181802D02*
X134500000Y-78818198D01*
X143488873Y-141745000D02*
X143488873Y-142352410D01*
X133430331Y-80100000D02*
X133218198Y-80100000D01*
X133781802Y-79748529D02*
X133430331Y-80100000D01*
X134500000Y-78818198D02*
X133781802Y-79536396D01*
X144488873Y-142352410D02*
X144488873Y-141745000D01*
X143488873Y-142352410D02*
X143756463Y-142620000D01*
X143756463Y-142620000D02*
X144000000Y-142620000D01*
X144000000Y-142620000D02*
X144221283Y-142620000D01*
X127875001Y-84010000D02*
X126750000Y-84010000D01*
X129718198Y-83600000D02*
X128285001Y-83600000D01*
X133781802Y-79536396D02*
X133781802Y-79748529D01*
X144221283Y-142620000D02*
X144488873Y-142352410D01*
X128285001Y-83600000D02*
X127875001Y-84010000D01*
%TO.N,UART_RX*%
X150500000Y-83500000D02*
X150500000Y-83540000D01*
X148000000Y-75380000D02*
X145200000Y-72580000D01*
X148000000Y-81000000D02*
X148000000Y-75380000D01*
X150500000Y-83540000D02*
X152500000Y-85540000D01*
X150500000Y-83500000D02*
X148000000Y-81000000D01*
X145200000Y-72580000D02*
X144250000Y-72580000D01*
%TO.N,UART_TX*%
X150445000Y-80945000D02*
X150445000Y-76555000D01*
X150445000Y-76555000D02*
X145200000Y-71310000D01*
X145200000Y-71310000D02*
X144250000Y-71310000D01*
X150445000Y-80945000D02*
X152500000Y-83000000D01*
%TO.N,Net-(J1-CC2)*%
X146500000Y-135500000D02*
X146500000Y-140158874D01*
X145488873Y-141170001D02*
X145488873Y-141745000D01*
X145000000Y-134000000D02*
X146500000Y-135500000D01*
X146500000Y-140158874D02*
X145488873Y-141170001D01*
%TD*%
M02*
