M48
; DRILL file KiCad 10.0.1 date 2026-04-29T02:44:29
; FORMAT={-:-/ absolute / metric / decimal}
; #@! TF.CreationDate,2026-04-29T02:44:29-04:00
; #@! TF.GenerationSoftware,Kicad,Pcbnew,10.0.1
; #@! TF.FileFunction,Plated,1,2,PTH
FMAT,2
METRIC
; #@! TA.AperFunction,Plated,PTH,ViaDrill
T1C0.300
; #@! TA.AperFunction,Plated,PTH,ComponentDrill
T2C0.300
; #@! TA.AperFunction,Plated,PTH,ComponentDrill
T3C0.600
; #@! TA.AperFunction,Plated,PTH,ComponentDrill
T4C1.000
; #@! TA.AperFunction,Plated,PTH,ComponentDrill
T5C1.300
; #@! TA.AperFunction,Plated,PTH,ComponentDrill
T6C2.300
; #@! TA.AperFunction,Plated,PTH,ComponentDrill
T7C2.500
; #@! TA.AperFunction,Plated,PTH,ComponentDrill
T8C3.000
; #@! TA.AperFunction,Plated,PTH,ComponentDrill
T9C3.200
%
G90
G05
T1
X113.059Y-142.99
X114.5Y-82.4
X116.0Y-133.0
X118.425Y-102.0
X120.5Y-89.7
X121.0Y-87.5
X124.0Y-128.0
X124.5Y-74.5
X124.995Y-100.442
X125.0Y-69.0
X126.75Y-67.5
X128.059Y-140.49
X130.0Y-102.0
X130.5Y-129.5
X132.5Y-99.5
X133.0Y-109.037
X133.182Y-79.5
X133.5Y-102.0
X134.0Y-75.22
X134.0Y-128.5
X134.069Y-104.931
X134.5Y-78.182
X137.0Y-99.5
X137.5Y-130.5
X138.0Y-105.0
X140.9Y-90.1
X141.5Y-82.5
X141.5Y-96.5
X142.0Y-124.0
X143.0Y-94.0
X143.5Y-137.0
X143.5Y-139.87
X143.559Y-145.49
X144.0Y-143.62
X144.25Y-67.5
X146.5Y-126.5
X153.0Y-77.5
X154.5Y-131.47
X157.559Y-142.99
T2
X132.6Y-74.52
X132.6Y-75.92
X133.3Y-73.82
X133.3Y-75.22
X133.3Y-76.62
X134.0Y-74.52
X134.0Y-75.92
X134.7Y-73.82
X134.7Y-75.22
X134.7Y-76.62
X135.4Y-74.52
X135.4Y-75.92
T4
X152.5Y-80.46
X152.5Y-83.0
X152.5Y-85.54
X152.5Y-88.08
T5
X117.032Y-114.75
X117.032Y-119.75
T6
X128.059Y-143.31
T7
X123.559Y-144.31
X132.559Y-144.31
T8
X128.059Y-137.31
T9
X115.559Y-145.99
X115.75Y-70.39
X155.059Y-145.99
X155.25Y-70.39
T3
G00X139.419Y-141.76
M15
G01X139.419Y-142.86
M16
G05
G00X139.419Y-146.19
M15
G01X139.419Y-146.79
M16
G05
G00X148.059Y-141.76
M15
G01X148.059Y-142.86
M16
G05
G00X148.059Y-146.19
M15
G01X148.059Y-146.79
M16
G05
M30
